#N canvas 204 52 1020 908 12;
#X obj 206 213 dac~;
#X obj 179 121 osc~ 440;
#X obj 354 134 osc~ 660;
#X text 36 19 lock more vs. edit mode command - E OR control - E;
#X obj 283 132 osc~ 520;
#X msg 286 81 550;
#X msg 241 81 520;
#X obj 207 169 *~ 0.2;
#X obj 94 329 vs.blsaw~;
#X obj 309 330 somejunkthatdoesnotexist;
#X text 221 54 These are PD vanilla objects;
#X text 41 303 This is a virtual studio object;
#X text 305 303 This object doesn't exist;
#X text 42 256 Go to put -> object to make a new object Restart PD in order to use Virtual Studio objects;
#X connect 1 0 7 0;
#X connect 2 0 7 0;
#X connect 4 0 7 0;
#X connect 5 0 4 0;
#X connect 6 0 4 0;
#X connect 7 0 0 0;
