#N canvas 204 52 1020 908 12;
#X obj 213 290 dac~;
#X obj 186 198 osc~ 440;
#X obj 361 211 osc~ 660;
#X text 43 96 lock more vs. edit mode command - E OR control - E;
#X obj 290 209 osc~ 520;
#X msg 293 158 550;
#X msg 248 158 520;
#X obj 214 246 *~ 0.2;
#X obj 52 475 vs.blsaw~;
#X obj 467 413 somejunkthatdoesnotexist;
#X text 228 131 These are PD vanilla objects;
#X text 455 379 This object doesn't exist;
#X text 331 159 These are messages;
#X text 437 214 These are objects;
#X text 48 380 This is a virtual studio object. The vs. just helps us keep track of "namespace" when we are using external libraries., f 28;
#X text 49 333 Go to put -> object to make a new object. Restart PD in order to use Virtual Studio objects.;
#X obj 57 587 vs.osc~;
#X obj 151 586 hsl 170 20 0 127 0 0 empty empty empty -2 -10 0 12 #faff00 #000000 #000000 0 1;
#X floatatom 148 624 5 0 0 0 - - - 0;
#X floatatom 545 784 5 0 0 0 - - - 0;
#X text 153 656 vs.midikeyboard;
#X obj 157 688 vs.midikeyboard;
#X floatatom 155 789 5 0 0 0 - - - 0;
#X text 14 17 pdbasics | Paul V. Miller | 21 March 2026| requires virtual sound library, f 36;
#X text 143 561 slider;
#X connect 1 0 7 0;
#X connect 2 0 7 0;
#X connect 4 0 7 0;
#X connect 5 0 4 0;
#X connect 6 0 4 0;
#X connect 7 0 0 0;
#X connect 17 0 18 0;
#X connect 21 0 22 0;
#X connect 21 1 19 0;
