#N canvas 304 336 953 380 12;
#X obj 26 92 vs.osc~;
#X obj 136 91 hsl 170 20 0 127 0 0 empty empty empty -2 -10 0 12 #fcfcfc #000000 #000000 0 1;
#X floatatom 133 129 5 0 0 0 - - - 0;
#X floatatom 530 289 5 0 0 0 - - - 0;
#X text 534 181 vs.midikeyboard;
#X obj 142 193 vs.midikeyboard;
#X floatatom 140 294 5 0 0 0 - - - 0;
#X text 9 15 pdbasics | Paul V. Miller | 21 March 2026| requires virtual sound library, f 36;
#X connect 1 0 2 0;
#X connect 5 0 6 0;
#X connect 5 1 3 0;
