#N canvas 278 25 1757 977 12;
#X obj 110 391 vs.sgain~;
#X obj 110 513 dac~;
#X obj 30 206 bng 15 250 50 0 empty empty empty 17 7 0 10 #fcfcfc #000000 #000000;
#X floatatom 185 328 5 0 0 0 - - - 0;
#X floatatom 313 329 5 0 0 0 - - - 0;
#X text 183 310 loop start (ms);
#X text 318 313 loop end (ms);
#X msg 123 85 loop \$1;
#X obj 123 63 tgl 15 0 empty empty empty 17 7 0 10 #fcfcfc #000000 #000000 0 1;
#X floatatom 139 115 5 0 0 0 - - - 0;
#X msg 138 138 speed \$1;
#X msg 155 182 open;
#X msg 11 248 stop;
#X text 47 205 play;
#X text 141 65 loop on/off;
#X text 193 114 speed of playback;
#X text 207 140 (negative also);
#X text 279 214 define portion to playback;
#X msg 168 213 frag 0 44100;
#N canvas 121 146 546 292 notes 0;
#X text 12 15 replace: open a file \, put it into an array and resize it.;
#X text 12 45 open: open a file \, put it into an array \, but don't resize it.;
#X text 12 85 frag: accept one or two values. If only one \, [vs.splayer~] play from this value and go along whole file. If a second value is present \, [vs.splayer~] plays the file from the first to the second value. Both value are expressed in milliseconds.;
#X text 12 165 speed: determine the speed of playback. If value is negative \, playback is in reverse mode.;
#X restore 247 449 pd notes;
#X obj 110 359 vs.splayer~ zdrums.aif;
#X text 25 25 [playsoundfile.pd | virtual sound library help file (modified);
#X text 313 449 a subpatch!;
#X msg 564 172 \; pd dsp 1;
#X msg 571 220 \; pd dsp 0;
#X obj 480 299 vs.spectroscope~;
#X text 497 266 vs.spectroscope~;
#X obj 10 153 print var_output;
#X floatatom 60 90 5 0 0 0 - - - 0;
#X msg 351 100 open /Users/paulmiller/Desktop/soundlab/soundfiles/thud-uh.wav, f 62;
#X connect 0 0 1 0;
#X connect 0 1 1 1;
#X connect 2 0 20 0;
#X connect 3 0 20 1;
#X connect 4 0 20 2;
#X connect 7 0 20 0;
#X connect 7 0 27 0;
#X connect 8 0 7 0;
#X connect 8 0 28 0;
#X connect 9 0 10 0;
#X connect 10 0 20 0;
#X connect 11 0 20 0;
#X connect 12 0 20 0;
#X connect 18 0 20 0;
#X connect 20 0 0 0;
#X connect 20 0 25 0;
#X connect 20 1 0 1;
#X connect 29 0 20 0;
