#N canvas 266 34 1591 952 12;
#X obj 182 118 moses 10;
#X obj 270 119 moses 20;
#X obj 373 118 moses 30;
#X floatatom 183 61 5 0 0 0 - - - 0;
#X obj 182 156 moses 0;
#X floatatom 190 211 5 0 0 0 - - - 0;
#X obj 235 210 bng 19 250 50 0 empty empty empty 0 -10 0 12 #fcfcfc #000000 #000000;
#X obj 271 158 moses 10;
#X floatatom 300 210 5 0 0 0 - - - 0;
#X obj 345 209 bng 19 250 50 0 empty empty empty 0 -10 0 12 #fcfcfc #000000 #000000;
#X floatatom 392 211 5 0 0 0 - - - 0;
#X obj 437 210 bng 19 250 50 0 empty empty empty 0 -10 0 12 #fcfcfc #000000 #000000;
#X obj 377 157 moses 20;
#X text 20 7 Make a quantizer;
#X msg 234 260 60;
#X msg 345 258 63;
#X msg 439 260 65;
#X msg 575 257 67;
#X msg 684 260 72;
#X floatatom 529 213 5 0 0 0 - - - 0;
#X obj 574 212 bng 19 250 50 0 empty empty empty 0 -10 0 12 #fcfcfc #000000 #000000;
#X obj 510 120 moses 40;
#X obj 514 159 moses 30;
#X floatatom 233 309 5 0 0 0 - - - 0;
#X floatatom 638 216 5 0 0 0 - - - 0;
#X obj 683 215 bng 19 250 50 0 empty empty empty 0 -10 0 12 #fcfcfc #000000 #000000;
#X obj 619 123 moses 50;
#X obj 623 162 moses 40;
#X text 51 261 put a MIDI number here;
#X obj 233 345 change;
#X obj 233 379 print midivalue;
#X text 348 374 useful for debugging!;
#X text 228 61 This could be your distance in centimeters;
#X connect 0 0 4 0;
#X connect 1 0 7 0;
#X connect 2 0 12 0;
#X connect 3 0 0 0;
#X connect 3 0 1 0;
#X connect 3 0 2 0;
#X connect 3 0 21 0;
#X connect 3 0 26 0;
#X connect 4 1 6 0;
#X connect 4 1 5 0;
#X connect 6 0 14 0;
#X connect 7 1 8 0;
#X connect 7 1 9 0;
#X connect 9 0 15 0;
#X connect 11 0 16 0;
#X connect 12 1 10 0;
#X connect 12 1 11 0;
#X connect 14 0 23 0;
#X connect 15 0 23 0;
#X connect 16 0 23 0;
#X connect 17 0 23 0;
#X connect 18 0 23 0;
#X connect 20 0 17 0;
#X connect 21 0 22 0;
#X connect 22 1 19 0;
#X connect 22 1 20 0;
#X connect 23 0 29 0;
#X connect 25 0 18 0;
#X connect 26 0 27 0;
#X connect 27 1 24 0;
#X connect 27 1 25 0;
#X connect 29 0 30 0;
