#N canvas 266 34 1591 952 12;
#X obj 251 182 moses 10;
#X floatatom 251 88 5 0 0 0 - - - 0;
#X obj 252 146 moses 0;
#X floatatom 277 237 5 0 0 0 - - - 0;
#X obj 251 236 bng 19 250 50 0 empty empty empty 0 -10 0 12 #fcfcfc #000000 #000000;
#X floatatom 375 241 5 0 0 0 - - - 0;
#X obj 344 238 bng 19 250 50 0 empty empty empty 0 -10 0 12 #fcfcfc #000000 #000000;
#X floatatom 473 235 5 0 0 0 - - - 0;
#X obj 443 236 bng 19 250 50 0 empty empty empty 0 -10 0 12 #fcfcfc #000000 #000000;
#X text 20 7 quantizer.pd This is a basic quantizer for incoming distance data Paul V. Miller | 22 March 2026 | soundLab;
#X msg 250 278 60;
#X msg 344 277 63;
#X msg 445 276 65;
#X msg 581 278 67;
#X msg 690 279 72;
#X floatatom 613 237 5 0 0 0 - - - 0;
#X obj 580 233 bng 19 250 50 0 empty empty empty 0 -10 0 12 #fcfcfc #000000 #000000;
#X floatatom 249 316 5 0 0 0 - - - 0;
#X floatatom 724 239 5 0 0 0 - - - 0;
#X obj 689 236 bng 19 250 50 0 empty empty empty 0 -10 0 12 #fcfcfc #000000 #000000;
#X text 60 284 put a MIDI number here;
#X obj 249 352 change;
#X obj 249 386 print midivalue;
#X text 374 386 useful for debugging!;
#X text 294 87 This could be your distance in centimeters;
#X text 22 121 This splits input into ranges;
#X obj 336 145 moses 10;
#X obj 337 184 moses 20;
#X obj 439 144 moses 20;
#X obj 442 183 moses 30;
#X text 160 143 low range;
#X text 163 181 high range;
#X obj 576 146 moses 30;
#X obj 580 185 moses 40;
#X obj 685 149 moses 40;
#X obj 689 188 moses 50;
#X connect 0 0 4 0;
#X connect 0 0 3 0;
#X connect 1 0 2 0;
#X connect 1 0 26 0;
#X connect 1 0 28 0;
#X connect 1 0 32 0;
#X connect 1 0 34 0;
#X connect 2 1 0 0;
#X connect 4 0 10 0;
#X connect 6 0 11 0;
#X connect 8 0 12 0;
#X connect 10 0 17 0;
#X connect 11 0 17 0;
#X connect 12 0 17 0;
#X connect 13 0 17 0;
#X connect 14 0 17 0;
#X connect 16 0 13 0;
#X connect 17 0 21 0;
#X connect 19 0 14 0;
#X connect 21 0 22 0;
#X connect 26 1 27 0;
#X connect 27 0 6 0;
#X connect 27 0 5 0;
#X connect 28 1 29 0;
#X connect 29 0 8 0;
#X connect 29 0 7 0;
#X connect 32 1 33 0;
#X connect 33 0 16 0;
#X connect 33 0 15 0;
#X connect 34 1 35 0;
#X connect 35 0 19 0;
#X connect 35 0 18 0;
