#N canvas 16 202 993 615 12;
#X floatatom 183 59 5 0 0 0 - - - 0;
#X text 228 61 This could be your distance in centimeters;
#X text 20 7 Quantizer + basic synth;
#N canvas 553 284 701 408 quantizer 0;
#X obj 182 74 moses 10;
#X obj 270 75 moses 20;
#X obj 373 74 moses 30;
#X obj 182 112 moses 0;
#X floatatom 190 167 5 0 0 0 - - - 0;
#X obj 235 166 bng 19 250 50 0 empty empty empty 0 -10 0 12 #fcfcfc #000000 #000000;
#X obj 271 114 moses 10;
#X floatatom 300 166 5 0 0 0 - - - 0;
#X obj 345 165 bng 19 250 50 0 empty empty empty 0 -10 0 12 #fcfcfc #000000 #000000;
#X floatatom 392 167 5 0 0 0 - - - 0;
#X obj 437 166 bng 19 250 50 0 empty empty empty 0 -10 0 12 #fcfcfc #000000 #000000;
#X obj 377 113 moses 20;
#X msg 226 217 60;
#X msg 320 216 63;
#X msg 439 216 65;
#X msg 522 218 67;
#X msg 587 218 72;
#X floatatom 529 169 5 0 0 0 - - - 0;
#X obj 574 168 bng 19 250 50 0 empty empty empty 0 -10 0 12 #fcfcfc #000000 #000000;
#X obj 510 76 moses 40;
#X obj 514 115 moses 30;
#X floatatom 224 296 5 0 0 0 - - - 0;
#X floatatom 638 172 5 0 0 0 - - - 0;
#X obj 683 171 bng 19 250 50 0 empty empty empty 0 -10 0 12 #fcfcfc #000000 #000000;
#X obj 619 79 moses 50;
#X obj 623 118 moses 40;
#X text 51 217 put a MIDI number here;
#X obj 224 332 change;
#X obj 181 35 inlet;
#X obj 223 371 outlet;
#X connect 0 0 3 0;
#X connect 1 0 6 0;
#X connect 2 0 11 0;
#X connect 3 1 5 0;
#X connect 3 1 4 0;
#X connect 5 0 12 0;
#X connect 6 1 7 0;
#X connect 6 1 8 0;
#X connect 8 0 13 0;
#X connect 10 0 14 0;
#X connect 11 1 9 0;
#X connect 11 1 10 0;
#X connect 12 0 21 0;
#X connect 13 0 21 0;
#X connect 14 0 21 0;
#X connect 15 0 21 0;
#X connect 16 0 21 0;
#X connect 18 0 15 0;
#X connect 19 0 20 0;
#X connect 20 1 17 0;
#X connect 20 1 18 0;
#X connect 21 0 27 0;
#X connect 23 0 16 0;
#X connect 24 0 25 0;
#X connect 25 1 22 0;
#X connect 25 1 23 0;
#X connect 27 0 29 0;
#X connect 28 0 0 0;
#X connect 28 0 1 0;
#X connect 28 0 2 0;
#X connect 28 0 19 0;
#X connect 28 0 24 0;
#X restore 180 93 pd quantizer;
#X obj 180 294 vs.blsaw~;
#X obj 183 235 mtof;
#X floatatom 182 264 5 0 0 0 - - - 0;
#X obj 177 400 vs.gain~;
#X obj 176 544 dac~;
#X text 60 235 convert to freq;
#X text 97 292 oscillator;
#X text 80 329 amp envelope;
#X text 112 367 filter;
#X text 93 410 gainstage;
#X text 106 544 output;
#X obj 177 365 vs.lowpass~ 1000 2;
#X msg 672 27 \; pd dsp 1;
#X msg 673 66 \; pd dsp 0;
#X obj 572 226 vs.line~;
#X obj 580 260 vs.number~;
#X obj 730 229 vs.line~;
#X obj 731 263 vs.number~;
#X text 566 147 generate amp envelope;
#X text 734 163 generate filter ramp;
#X msg 729 188 4000 20 100 100;
#X msg 571 181 0 \, 1 25 0 100;
#X obj 570 122 bng 19 250 50 0 empty empty empty 0 -10 0 12 #fcfcfc #000000 #000000;
#X obj 178 328 *~, f 11;
#X connect 0 0 3 0;
#X connect 3 0 5 0;
#X connect 3 0 26 0;
#X connect 4 0 27 0;
#X connect 5 0 6 0;
#X connect 6 0 4 0;
#X connect 7 0 8 0;
#X connect 7 0 8 1;
#X connect 15 0 7 0;
#X connect 18 0 19 0;
#X connect 18 0 27 1;
#X connect 20 0 21 0;
#X connect 20 0 15 1;
#X connect 24 0 20 0;
#X connect 25 0 18 0;
#X connect 26 0 25 0;
#X connect 26 0 24 0;
#X connect 27 0 15 0;
