#N canvas 87 104 962 787 12;
#X obj 177 139 comport;
#X obj 177 165 serial_print;
#X msg 127 93 devices;
#X msg 211 97 open 2;
#X msg 294 98 baud 115200;
#X msg 401 99 close;
#X floatatom 178 187 5 0 0 0 - - - 0;
#X obj 475 257 print midivalue;
#X text 589 256 useful for debugging!;
#X obj 179 310 vs.blsaw~;
#X obj 179 258 mtof;
#X floatatom 179 284 5 0 0 0 - - - 0;
#X obj 176 453 vs.gain~;
#X obj 175 576 dac~;
#X text 57 255 convert to freq;
#X text 94 312 oscillator;
#X text 76 391 amp envelope;
#X text 108 429 filter;
#X text 89 472 gainstage;
#X text 102 579 output;
#X obj 176 425 vs.lowpass~ 1000 2;
#X obj 416 352 vs.line~;
#X obj 415 393 vs.number~;
#X obj 576 351 vs.line~;
#X obj 576 393 vs.number~;
#X text 412 295 generate amp envelope;
#X text 580 293 generate filter ramp;
#X obj 416 270 bng 19 250 50 0 empty empty empty 0 -10 0 12 #fcfcfc #000000 #000000;
#X obj 178 390 *~, f 11;
#X msg 574 317 4000 20 100 400;
#X msg 417 320 0 \, 1 25 0 400;
#X msg 551 121 \; pd dsp 1;
#X msg 550 161 \; pd dsp 0, f 9;
#X text 276 137 needs comport library!;
#X text 221 192 This will be your distance in centimeters;
#N canvas 17 89 1854 841 quantizer 0;
#X obj 187 39 inlet;
#X obj 178 329 outlet;
#X obj 184 120 moses 10;
#X obj 185 84 moses 0;
#X floatatom 210 175 5 0 0 0 - - - 0;
#X obj 184 174 bng 19 250 50 0 empty empty empty 0 -10 0 12 #fcfcfc #000000 #000000;
#X floatatom 308 179 5 0 0 0 - - - 0;
#X obj 277 176 bng 19 250 50 0 empty empty empty 0 -10 0 12 #fcfcfc #000000 #000000;
#X floatatom 406 173 5 0 0 0 - - - 0;
#X obj 376 174 bng 19 250 50 0 empty empty empty 0 -10 0 12 #fcfcfc #000000 #000000;
#X msg 183 216 60;
#X msg 277 215 63;
#X msg 378 214 65;
#X msg 514 216 67;
#X msg 623 217 72;
#X floatatom 546 175 5 0 0 0 - - - 0;
#X obj 513 171 bng 19 250 50 0 empty empty empty 0 -10 0 12 #fcfcfc #000000 #000000;
#X floatatom 182 254 5 0 0 0 - - - 0;
#X floatatom 657 177 5 0 0 0 - - - 0;
#X obj 622 174 bng 19 250 50 0 empty empty empty 0 -10 0 12 #fcfcfc #000000 #000000;
#X text -7 222 put a MIDI number here;
#X obj 182 290 change;
#X obj 269 83 moses 10;
#X obj 270 122 moses 20;
#X obj 372 82 moses 20;
#X obj 375 121 moses 30;
#X text 93 81 low range;
#X text 96 119 high range;
#X obj 509 84 moses 30;
#X obj 513 123 moses 40;
#X obj 618 87 moses 40;
#X obj 622 126 moses 50;
#X connect 0 0 3 0;
#X connect 0 0 22 0;
#X connect 0 0 24 0;
#X connect 0 0 28 0;
#X connect 0 0 30 0;
#X connect 2 0 5 0;
#X connect 2 0 4 0;
#X connect 3 1 2 0;
#X connect 5 0 10 0;
#X connect 7 0 11 0;
#X connect 9 0 12 0;
#X connect 10 0 17 0;
#X connect 11 0 17 0;
#X connect 12 0 17 0;
#X connect 13 0 17 0;
#X connect 14 0 17 0;
#X connect 16 0 13 0;
#X connect 17 0 21 0;
#X connect 19 0 14 0;
#X connect 21 0 1 0;
#X connect 22 1 23 0;
#X connect 23 0 7 0;
#X connect 23 0 6 0;
#X connect 24 1 25 0;
#X connect 25 0 9 0;
#X connect 25 0 8 0;
#X connect 28 1 29 0;
#X connect 29 0 16 0;
#X connect 29 0 15 0;
#X connect 30 1 31 0;
#X connect 31 0 19 0;
#X connect 31 0 18 0;
#X restore 178 220 pd quantizer;
#X text 26 15 serial-print-patch.pd | Paul V. Miller | 22 March 2026 This reads distance data from the HCSR04 \, quantizes it and then sends MIDI notes through the basic synth we created.;
#X connect 0 0 1 0;
#X connect 1 0 6 0;
#X connect 2 0 0 0;
#X connect 3 0 0 0;
#X connect 4 0 0 0;
#X connect 5 0 0 0;
#X connect 6 0 35 0;
#X connect 9 0 28 0;
#X connect 10 0 11 0;
#X connect 11 0 9 0;
#X connect 12 0 13 0;
#X connect 12 0 13 1;
#X connect 20 0 12 0;
#X connect 21 0 22 0;
#X connect 21 0 28 1;
#X connect 23 0 24 0;
#X connect 23 0 20 1;
#X connect 27 0 30 0;
#X connect 27 0 29 0;
#X connect 28 0 20 0;
#X connect 29 0 23 0;
#X connect 30 0 21 0;
#X connect 35 0 7 0;
#X connect 35 0 10 0;
#X connect 35 0 27 0;
