#N canvas 270 44 1808 958 12;
#X obj 167 51 comport;
#X obj 167 77 serial_print;
#X msg 117 5 devices;
#X msg 201 9 open 2;
#X msg 284 10 baud 115200;
#X msg 391 11 close;
#X floatatom 168 99 5 0 0 0 - - - 0;
#X obj 465 169 print midivalue;
#X text 579 168 useful for debugging!;
#X text 213 99 This could be your distance in centimeters;
#N canvas 17 89 1866 841 paulsquantizer 0;
#X obj 188 97 moses 10;
#X obj 276 98 moses 20;
#X obj 379 97 moses 30;
#X obj 188 135 moses 0;
#X floatatom 196 190 5 0 0 0 - - - 0;
#X obj 241 189 bng 19 250 50 0 empty empty empty 0 -10 0 12 #fcfcfc #000000 #000000;
#X obj 277 137 moses 10;
#X floatatom 306 189 5 0 0 0 - - - 0;
#X obj 351 188 bng 19 250 50 0 empty empty empty 0 -10 0 12 #fcfcfc #000000 #000000;
#X floatatom 398 190 5 0 0 0 - - - 0;
#X obj 443 189 bng 19 250 50 0 empty empty empty 0 -10 0 12 #fcfcfc #000000 #000000;
#X obj 383 136 moses 20;
#X msg 240 239 60;
#X msg 445 239 65;
#X msg 581 236 67;
#X msg 690 239 72;
#X floatatom 535 192 5 0 0 0 - - - 0;
#X obj 580 191 bng 19 250 50 0 empty empty empty 0 -10 0 12 #fcfcfc #000000 #000000;
#X obj 516 99 moses 40;
#X obj 520 138 moses 30;
#X floatatom 239 288 5 0 0 0 - - - 0;
#X floatatom 644 195 5 0 0 0 - - - 0;
#X obj 689 194 bng 19 250 50 0 empty empty empty 0 -10 0 12 #fcfcfc #000000 #000000;
#X obj 625 102 moses 50;
#X obj 629 141 moses 40;
#X text 57 240 put a MIDI number here;
#X obj 240 322 change;
#X text 108 97 less than;
#X text 89 137 greater than;
#X obj 190 55 inlet;
#X obj 239 359 outlet;
#X msg 351 237 64;
#X floatatom 750 197 5 0 0 0 - - - 0;
#X obj 795 196 bng 19 250 50 0 empty empty empty 0 -10 0 12 #fcfcfc #000000 #000000;
#X obj 731 104 moses 60;
#X obj 735 143 moses 50;
#X msg 796 241 74;
#X connect 0 0 3 0;
#X connect 1 0 6 0;
#X connect 2 0 11 0;
#X connect 3 1 5 0;
#X connect 3 1 4 0;
#X connect 5 0 12 0;
#X connect 6 1 7 0;
#X connect 6 1 8 0;
#X connect 8 0 31 0;
#X connect 10 0 13 0;
#X connect 11 1 9 0;
#X connect 11 1 10 0;
#X connect 12 0 20 0;
#X connect 13 0 20 0;
#X connect 14 0 20 0;
#X connect 15 0 20 0;
#X connect 17 0 14 0;
#X connect 18 0 19 0;
#X connect 19 1 16 0;
#X connect 19 1 17 0;
#X connect 20 0 26 0;
#X connect 22 0 15 0;
#X connect 23 0 24 0;
#X connect 24 1 21 0;
#X connect 24 1 22 0;
#X connect 26 0 30 0;
#X connect 29 0 0 0;
#X connect 29 0 1 0;
#X connect 29 0 2 0;
#X connect 29 0 18 0;
#X connect 29 0 23 0;
#X connect 29 0 34 0;
#X connect 31 0 20 0;
#X connect 33 0 36 0;
#X connect 34 0 35 0;
#X connect 35 1 32 0;
#X connect 35 1 33 0;
#X connect 36 0 20 0;
#X restore 168 132 pd paulsquantizer;
#X obj 169 222 vs.blsaw~;
#X obj 169 170 mtof;
#X floatatom 169 196 5 0 0 0 - - - 0;
#X obj 167 323 vs.gain~;
#X obj 166 446 dac~;
#X text 47 167 convert to freq;
#X text 84 224 oscillator;
#X text 67 261 amp envelope;
#X text 99 299 filter;
#X text 80 342 gainstage;
#X text 93 449 output;
#X obj 167 295 vs.lowpass~ 1000 2;
#X obj 406 264 vs.line~;
#X obj 405 305 vs.number~;
#X obj 566 263 vs.line~;
#X obj 566 305 vs.number~;
#X text 402 207 generate amp envelope;
#X text 570 205 generate filter ramp;
#X obj 406 182 bng 19 250 50 0 empty empty empty 0 -10 0 12 #fcfcfc #000000 #000000;
#X obj 169 260 *~, f 11;
#X msg 564 229 4000 20 100 400;
#X msg 407 232 0 \, 1 25 0 400;
#X msg 541 33 \; pd dsp 1;
#X msg 541 61 \; pd dsp 0, f 9;
#X connect 0 0 1 0;
#X connect 1 0 6 0;
#X connect 2 0 0 0;
#X connect 3 0 0 0;
#X connect 4 0 0 0;
#X connect 5 0 0 0;
#X connect 6 0 10 0;
#X connect 10 0 7 0;
#X connect 10 0 12 0;
#X connect 10 0 29 0;
#X connect 11 0 30 0;
#X connect 12 0 13 0;
#X connect 13 0 11 0;
#X connect 14 0 15 0;
#X connect 14 0 15 1;
#X connect 22 0 14 0;
#X connect 23 0 24 0;
#X connect 23 0 30 1;
#X connect 25 0 26 0;
#X connect 25 0 22 1;
#X connect 29 0 32 0;
#X connect 29 0 31 0;
#X connect 30 0 22 0;
#X connect 31 0 25 0;
#X connect 32 0 23 0;
