#N canvas 849 146 864 816 12;
#X obj 138 361 vs.blsaw~;
#X obj 141 302 mtof;
#X msg 143 250 60;
#X floatatom 140 331 5 0 0 0 - - - 0;
#X obj 143 143 vs.counter 1 8;
#X obj 142 85 tgl 20 0 empty empty empty 0 -10 0 12 #fcfcfc #000000 #000000 0 1;
#X obj 143 114 metro 500;
#X floatatom 143 181 5 0 0 0 - - - 0;
#X msg 186 251 62;
#X obj 143 212 route 1 2 3 4 5 6 7 8, f 52;
#X msg 234 250 64;
#X msg 276 249 65;
#X msg 323 252 67;
#X msg 367 250 69;
#X msg 411 246 71;
#X msg 453 247 72;
#X obj 528 216 vs.line~;
#X obj 527 254 vs.number~;
#X msg 525 84 \; pd dsp 1;
#X msg 603 85 \; pd dsp 0;
#X obj 135 467 vs.gain~;
#X obj 134 611 dac~;
#X obj 354 464 vs.spectroscope~;
#X obj 136 395 *~, f 11;
#X obj 706 211 vs.line~;
#X obj 135 434 vs.lowpass~ 1000 5;
#X msg 527 171 0 \, 1 25 0 75;
#X msg 705 170 0 \, 6000 40 400 60;
#X obj 707 245 vs.number~;
#X text 83 86 on/off;
#X text 57 250 MIDI notes;
#X text 18 302 convert to freq;
#X text 55 359 oscillator;
#X text 38 396 amp envelope;
#X text 70 434 filter;
#X text 51 477 gainstage;
#X text 64 611 output;
#X text 65 118 metronome;
#X text 21 213 distribute trigs;
#X text 526 61 turn dsp on/off;
#X text 522 137 generate amp envelope;
#X text 702 134 generate filter ramp;
#X text 11 22 Simple sequencer for soundLab Workshop | Paul V. Miller | 21 March 2026 | requires virtual sound library, f 41;
#X connect 0 0 23 0;
#X connect 1 0 3 0;
#X connect 2 0 1 0;
#X connect 3 0 0 0;
#X connect 4 0 7 0;
#X connect 5 0 6 0;
#X connect 6 0 4 0;
#X connect 6 0 26 0;
#X connect 6 0 27 0;
#X connect 7 0 9 0;
#X connect 8 0 1 0;
#X connect 9 0 2 0;
#X connect 9 1 8 0;
#X connect 9 2 10 0;
#X connect 9 3 11 0;
#X connect 9 4 12 0;
#X connect 9 5 13 0;
#X connect 9 6 14 0;
#X connect 9 7 15 0;
#X connect 10 0 1 0;
#X connect 11 0 1 0;
#X connect 12 0 1 0;
#X connect 13 0 1 0;
#X connect 14 0 1 0;
#X connect 15 0 1 0;
#X connect 16 0 17 0;
#X connect 17 0 23 1;
#X connect 20 0 21 0;
#X connect 20 0 21 1;
#X connect 20 0 22 0;
#X connect 23 0 25 0;
#X connect 24 0 28 0;
#X connect 25 0 20 0;
#X connect 26 0 16 0;
#X connect 27 0 24 0;
#X connect 28 0 25 1;
